<?xml version="1.0" standalone="no"?>
<!DOCTYPE svg PUBLIC "-//W3C//DTD SVG 20010904//EN"
 "http://www.w3.org/TR/2001/REC-SVG-20010904/DTD/svg10.dtd">
<svg version="1.0" xmlns="http://www.w3.org/2000/svg"
 width="260.000000pt" height="260.000000pt" viewBox="0 0 260.000000 260.000000"
 preserveAspectRatio="xMidYMid meet">
<metadata>
Created by potrace 1.11, written by Peter Selinger 2001-2013
</metadata>
<g transform="translate(0.000000,260.000000) scale(0.100000,-0.100000)"
fill="#000000" stroke="none">
<path d="M1122 2304 c-41 -7 -104 -23 -140 -35 -63 -21 -211 -86 -222 -98 -3
-3 -32 -24 -65 -46 -118 -79 -244 -221 -323 -365 -43 -79 -90 -220 -107 -319
-20 -120 -10 -364 16 -412 5 -11 8 -19 5 -19 -3 0 6 -30 19 -67 63 -185 128
-287 264 -422 160 -157 329 -242 574 -290 47 -9 283 -8 322 2 11 2 38 8 60 12
40 7 113 29 150 45 153 65 264 137 367 241 126 127 210 268 262 440 33 108 40
159 40 294 1 166 -15 254 -74 401 -55 138 -121 235 -239 353 -142 141 -330
241 -532 282 -81 16 -293 18 -377 3z"/>
</g>
</svg>
